<svg width="128" height="77" viewBox="0 0 128 77" fill="none" xmlns="http://www.w3.org/2000/svg">
<g clip-path="url(#clip0_54_6)">
<path d="M100.064 26.4458C97.5503 26.8755 97.6363 26.8397 96.6051 24.5409C91.3845 12.9254 82.5905 5.72834 69.9939 3.39378C61.3453 1.7471 52.395 3.51558 45.0227 8.32787C38.8109 12.1871 33.9918 17.9268 31.2659 24.7128C30.3923 26.8612 30.3421 26.9185 27.6853 26.3957C29.2477 21.3102 31.9213 16.6357 35.5125 12.7106C38.6578 9.05031 42.5001 6.05273 46.8156 3.89253C51.1311 1.73232 55.8334 0.452701 60.6485 0.128254C83.0703 -1.59044 96.9345 14.3218 100.064 26.4458Z" fill="white"/>
<path d="M100.05 49.6068C97.1852 61.1794 83.543 77.5929 60.8204 75.9458C51.6453 75.3641 43.0317 71.326 36.7157 64.6454C32.5797 60.4331 29.485 55.3128 27.6782 49.6927C30.2778 49.127 30.3708 49.2487 31.2588 51.3255C36.0139 62.361 44.2207 69.558 55.8935 72.265C67.8313 75.0292 78.566 72.1575 87.7897 63.9866C91.8395 60.3576 94.9627 55.8127 96.8988 50.7311C97.4645 49.3132 97.665 49.2344 100.05 49.6068Z" fill="white"/>
<path d="M125.823 37.9554C129.318 41.1135 128.129 45.5893 125.207 47.043C124.254 47.494 123.217 47.7381 122.164 47.7592C118.69 47.8451 115.203 47.8021 111.722 47.7592C110.133 47.7592 109.76 47.3868 109.76 45.797C109.76 40.5693 109.76 35.3464 109.76 30.1282C109.76 28.5456 110.133 28.1803 111.744 28.166C115.031 28.166 118.318 28.166 121.605 28.166C124.283 28.166 126.561 28.9251 127.57 31.5819C128.067 32.6814 128.165 33.92 127.846 35.0837C127.527 36.2474 126.811 37.2631 125.823 37.9554ZM117.802 36.96C119.442 36.96 121.089 37.0101 122.729 36.96C123.599 36.9733 124.439 36.6405 125.063 36.0348C125.688 35.4291 126.046 34.6002 126.059 33.7303C126.073 32.8604 125.74 32.0209 125.134 31.3964C124.528 30.7719 123.699 30.4136 122.83 30.4003C119.543 30.3144 116.255 30.4003 112.968 30.343C112.188 30.343 111.823 30.651 111.837 31.4602C111.837 32.8924 111.837 34.3605 111.837 35.8071C111.837 36.6664 112.138 37.0316 113.026 37.0101C114.58 36.9529 116.205 36.9815 117.802 36.9815V36.96ZM117.91 39.0654C116.263 39.0654 114.623 39.0654 112.983 39.0654C112.202 39.0654 111.823 39.3304 111.83 40.1468C111.858 41.6459 111.858 43.1426 111.83 44.6369C111.83 45.4676 112.231 45.7325 112.99 45.7254C116.177 45.7254 119.371 45.7612 122.55 45.7254C122.998 45.7431 123.445 45.6688 123.864 45.507C124.282 45.3451 124.663 45.0992 124.982 44.7844C125.302 44.4696 125.553 44.0927 125.721 43.6768C125.889 43.261 125.97 42.8151 125.959 42.3668C125.909 40.5192 124.455 39.1728 122.378 39.1155C120.903 39.0583 119.406 39.0869 117.91 39.0869V39.0654Z" fill="white"/>
<path d="M89.4222 37.9112C89.4222 35.3475 89.4222 32.7909 89.4222 30.2272C89.4222 28.5944 89.7874 28.2435 91.5204 28.2364C96.2134 28.2364 100.902 28.2364 105.585 28.2364C106.401 28.2364 107.497 28.1433 107.511 29.2246C107.511 30.4277 106.344 30.306 105.513 30.3131C101.553 30.3131 97.586 30.3131 93.6259 30.3131C91.5204 30.3131 91.4775 30.3131 91.5276 32.4615C91.5276 33.8938 91.1767 35.77 91.9215 36.615C92.566 37.3312 94.5425 36.923 95.9246 36.9373C99.0684 36.9373 102.212 36.9373 105.349 36.9373C105.832 36.904 106.317 36.9574 106.781 37.0948C107.11 37.2381 107.497 37.6677 107.497 37.9757C107.454 38.1687 107.367 38.3492 107.243 38.5032C107.118 38.6572 106.961 38.7805 106.781 38.8637C106.271 39.0061 105.741 39.0618 105.213 39.0284C101.202 39.0284 97.1921 39.0857 93.1818 39.0284C91.8069 39.0284 91.3915 39.4795 91.4918 40.7757C91.5742 41.9344 91.5742 43.0974 91.4918 44.2561C91.413 45.4305 91.9286 45.7456 93.0243 45.7313C97.0776 45.6883 101.136 45.6883 105.198 45.7313C106.079 45.7313 107.497 45.3804 107.476 46.7768C107.454 48.1733 106.079 47.7937 105.17 47.7937C100.63 47.7937 96.0893 47.7937 91.5634 47.7937C89.7516 47.7937 89.415 47.4858 89.415 45.7098C89.415 43.1318 89.4222 40.5251 89.4222 37.9112Z" fill="white"/>
<path d="M56.7098 39.0784C52.7854 39.0784 49.0687 39.0784 45.3592 39.0784C41.9648 39.0784 40.6184 37.7106 40.6113 34.3592C40.6113 32.8124 40.5397 31.2584 40.6614 29.7259C40.6614 29.2389 41.263 28.8021 41.5852 28.3438C41.9146 28.8092 42.4947 29.2532 42.5305 29.733C42.6522 31.373 42.5735 33.02 42.5878 34.66C42.5878 36.4073 43.0962 36.9587 44.7863 36.973C48.0709 36.973 51.3579 36.973 54.6473 36.973C56.2586 36.973 56.6668 36.529 56.7098 34.8247C56.7527 33.1203 56.7098 31.6379 56.7098 30.041C56.7098 29.2532 56.8172 28.2936 57.8269 28.4154C58.2064 28.4583 58.7364 29.4681 58.7507 30.0481C58.8295 34.4953 58.8152 38.9424 58.7507 43.3895C58.7507 46.254 57.1967 47.765 54.3609 47.7937C51.1741 47.7937 47.9802 47.8366 44.7934 47.7937C42.1295 47.7507 40.4466 46.1896 40.597 43.8836C40.597 43.4038 41.1913 42.9598 41.5136 42.5015C41.843 42.9025 42.4374 43.2821 42.466 43.7046C42.5878 45.1941 43.3755 45.7169 44.7505 45.7098C48.0375 45.7098 51.3245 45.7098 54.6115 45.7098C55.9865 45.7098 56.6739 45.1225 56.6525 43.7118C56.6883 42.1506 56.7098 40.568 56.7098 39.0784Z" fill="white"/>
<path d="M74.1186 40.4686C73.0803 42.7101 72.2209 44.6436 71.2542 46.527C71.0178 47.0068 70.4521 47.7158 70.1513 47.6585C69.8735 47.5701 69.6166 47.4261 69.3962 47.2353C69.1759 47.0445 68.9966 46.8108 68.8695 46.5485C66.3105 41.1442 63.8041 35.7136 61.3502 30.2567C61.2458 29.974 61.2128 29.6699 61.254 29.3713C61.2953 29.0728 61.4094 28.789 61.5865 28.5452C62.4387 27.9723 62.854 28.8316 63.1548 29.4761C64.7303 32.8347 66.2771 36.2148 67.8382 39.5806C68.5544 41.063 69.2705 42.5454 70.0654 44.3285C70.9605 42.4594 71.691 40.7479 72.5575 39.1581C73.0234 38.4417 73.5583 37.7725 74.1545 37.1601C74.7466 37.7819 75.2788 38.4581 75.7442 39.1796C76.5893 40.7837 77.2911 42.4523 78.1934 44.3787C79.7116 41.0916 81.1009 38.0911 82.4901 35.069C83.3566 33.1856 84.2088 31.2951 85.1111 29.426C85.4191 28.7815 85.8273 27.9293 86.6938 28.5093C86.8639 28.7566 86.9722 29.0411 87.0096 29.339C87.0469 29.6368 87.0123 29.9392 86.9086 30.2209C84.438 35.7136 81.8958 41.1847 79.3249 46.6344C79.11 47.0928 78.5156 47.6728 78.1361 47.6442C77.7566 47.6155 77.2195 47.014 76.9903 46.5413C76.0307 44.6794 75.1928 42.7387 74.1186 40.4686Z" fill="white"/>
<path d="M35.4982 38.0186C38.556 40.167 38.6563 43.2606 38.4629 46.4116C38.4629 46.8555 37.8757 47.2709 37.5606 47.7006C37.1882 47.2852 36.5723 46.9057 36.4864 46.433C36.3905 45.4239 36.3594 44.4097 36.3933 43.3967C36.407 42.8287 36.3053 42.2638 36.0942 41.7363C35.8832 41.2087 35.5672 40.7296 35.1654 40.3278C34.7637 39.9261 34.2845 39.6101 33.757 39.399C33.2295 39.1879 32.6646 39.0862 32.0966 39.0999C29.2321 39.0426 26.3676 39.0999 23.546 39.0999C22.6222 39.0999 22.2499 39.3649 22.2857 40.3388C22.343 42.2724 22.3788 44.2131 22.2857 46.1323C22.2499 46.698 21.6197 47.2136 21.2688 47.7507C20.968 47.2279 20.4094 46.7123 20.4023 46.1824C20.3402 40.821 20.3402 35.4549 20.4023 30.0839C20.4023 29.511 20.9537 28.4727 21.2903 28.4583C22.3072 28.4082 22.3286 29.3463 22.3286 30.1484C22.3286 32.0318 22.3286 33.9224 22.3286 35.8058C22.3286 36.6508 22.5435 37.0375 23.4601 37.0232C26.4535 36.9802 29.4541 37.0232 32.4475 36.9659C33.4955 36.9379 34.491 36.5013 35.2215 35.7493C35.9521 34.9974 36.3597 33.9896 36.3575 32.9413C36.3519 31.8363 36.4069 30.7318 36.5222 29.6328C36.601 29.1673 37.2383 28.7877 37.6036 28.3652C37.9115 28.8021 38.4629 29.2174 38.4916 29.6686C38.6706 32.8195 38.5417 35.906 35.4982 38.0186Z" fill="white"/>
<path d="M10.9281 28.2305H16.2847C17.0796 28.2305 18.0249 28.2305 18.0177 29.276C18.0105 30.3216 17.0223 30.3072 16.256 30.3072C12.6754 30.3072 9.09479 30.386 5.51417 30.3072C4.9601 30.2745 4.40658 30.3801 3.90354 30.6147C3.40049 30.8492 2.96374 31.2053 2.63265 31.6508C2.30156 32.0963 2.08655 32.6171 2.00701 33.1664C1.92747 33.7158 1.9859 34.2762 2.17703 34.7973C2.39028 35.3926 2.77177 35.9132 3.27517 36.2958C3.77858 36.6784 4.38225 36.9067 5.01289 36.9529C5.39817 36.9135 5.78743 36.95 6.15868 37.0603C6.54562 37.344 6.89459 37.6761 7.19706 38.0485C6.839 38.3779 6.48094 38.9652 6.12288 39.0081C5.37974 39.1285 4.61965 39.0924 3.89129 38.902C3.16292 38.7117 2.48233 38.3714 1.8931 37.9028C1.30387 37.4342 0.818987 36.8478 0.469497 36.181C0.120007 35.5142 -0.0863848 34.7818 -0.136462 34.0306C-0.186539 33.2795 -0.0791979 32.5261 0.178688 31.8189C0.436574 31.1116 0.839321 30.466 1.36114 29.9233C1.88296 29.3807 2.51234 28.953 3.209 28.6677C3.90565 28.3823 4.65421 28.2456 5.40675 28.2663C7.24003 28.209 9.08047 28.2663 10.9137 28.2663L10.9281 28.2305Z" fill="white"/>
<path d="M7.21855 47.8366C5.5285 47.8366 3.83845 47.8366 2.1484 47.8366C1.33201 47.8366 0.128927 48.0944 0.107443 46.8555C0.0859591 45.6167 1.37498 45.7814 2.25581 45.767C5.48553 45.7241 8.70093 45.767 11.9593 45.7241C12.8615 45.737 13.755 45.5461 14.5731 45.1655C15.9195 44.4494 16.3563 43.0887 16.0054 41.5849C15.8165 40.9354 15.437 40.3575 14.9162 39.926C14.3953 39.4945 13.7569 39.2292 13.0836 39.1644C12.939 39.1761 12.7934 39.1615 12.6539 39.1214C12.0452 38.792 10.9496 38.4053 10.9496 38.0759C10.9496 36.9802 11.9879 37.016 12.8043 37.059C13.5289 37.0482 14.2482 37.1832 14.9195 37.456C15.5908 37.7287 16.2005 38.1336 16.7122 38.6466C17.224 39.1595 17.6274 39.7702 17.8985 40.4422C18.1697 41.1141 18.3029 41.8338 18.2905 42.5583C18.278 43.2828 18.12 43.9974 17.8259 44.6596C17.5318 45.3218 17.1075 45.9182 16.5784 46.4133C16.0493 46.9083 15.426 47.292 14.7457 47.5414C14.0654 47.7908 13.3419 47.901 12.6181 47.8653C10.792 47.8653 9.00886 47.8295 7.21855 47.8366Z" fill="white"/>
</g>
<defs>
<clipPath id="clip0_54_6">
<rect width="128" height="76.0595" fill="white"/>
</clipPath>
</defs>
</svg>
